# xmcd
#
# Track frame offsets: 
#        150
#        19648
#        31684
#        47560
#        62120
#        83755
#        102503
#        120480
#        136880
#        152950
#        166710
#        178063
#        196090
#        216808
#        231343
#        246520
#        259330
#        275353
#        290634
#        308128
#
# Disc length: 4209 seconds
#
# Revision: 1
# Processed by: cddbd v1.5.2PL0 Copyright (c) Steve Scherf et al.
# Submitted via: ExactAudioCopy v1.0b4
#
DISCID=19106f14
DTITLE=Roberta Miranda - Novo Millenium (2005)
DYEAR=2005
DGENRE=Other
TTITLE0=A Mulher Em Mim
TTITLE1=Atração Fatal
TTITLE2=Amanhã - Com Reginaldo Rossi
TTITLE3=Vá Com Deus (Ao Vivo)
TTITLE4=Um Dia De Domingo
TTITLE5=Majestade, O Sabiá (Ao Vivo) - Com Chitãozinho and Xororó
TTITLE6=Eu Acho Que Eu Estou Perdendo Você
TTITLE7=Sol Da Minha Vida (Ao Vivo)
TTITLE8=Meu Dengo (Ao Vivo) - Rionegro and Solimões
TTITLE9=Sempre Mais
TTITLE10=São Tantas Coisas Coisas (Ao Vivo)
TTITLE11=No Coração, A Paixão, Na Cabeça, O Ciúme
TTITLE12=Eu Te Amo, Te Amo, Te Amo (Ao Vivo)
TTITLE13=De Igual Pra Igual (Ao Vivo)
TTITLE14=Seu Amor Ainda É Tudo
TTITLE15=Garçon (Ao Vivo)
TTITLE16=Faz Amor Comigo
TTITLE17=Duas Taças (Ao Vivo)
TTITLE18=Pedacinhos - Com Irmãs Galvão
TTITLE19=Dói (Ao Vivo)
EXTD=
EXTT0=
EXTT1=
EXTT2=
EXTT3=
EXTT4=
EXTT5=
EXTT6=
EXTT7=
EXTT8=
EXTT9=
EXTT10=
EXTT11=
EXTT12=
EXTT13=
EXTT14=
EXTT15=
EXTT16=
EXTT17=
EXTT18=
EXTT19=
PLAYORDER=
